<?xml version="1.0" encoding="utf-8"?>
<svg width="512.001px" height="512px" viewBox="0 0 512.001 512" version="1.1" xmlns:xlink="http://www.w3.org/1999/xlink" xmlns="http://www.w3.org/2000/svg">
  <g id="Magic.Large">
    <path d="M0 0L512.001 0L512.001 512L0 512L0 0Z" id="Transparent-Background" fill="none" fill-rule="evenodd" stroke="none" />
    <g id="Magic" transform="translate(25.000237 16)">
      <g id="Group">
        <path d="M171.342 10.8557C166.386 -3.61858 158.457 -3.61858 153.502 10.8557L126.08 92.3779C121.29 106.852 105.432 122.658 91.2255 127.649L10.7786 155.266C-3.59285 160.258 -3.59285 168.243 10.7786 173.235L90.7299 201.185C105.101 206.176 120.794 222.148 125.75 236.456L153.667 318.144C158.623 332.619 166.552 332.619 171.507 318.144L198.763 236.955C203.554 222.481 219.247 206.675 233.618 201.684L315.221 173.567C329.593 168.576 329.593 160.59 315.221 155.765L234.94 128.481C220.568 123.656 204.875 107.85 199.92 93.3761C199.424 93.2097 171.342 10.8557 171.342 10.8557L171.342 10.8557Z" id="Shape" fill="#FFC75F" stroke="none" />
        <path d="M275.35 310.741C272.766 303.086 268.631 303.086 266.047 310.741L251.747 353.856C249.249 361.512 240.98 369.871 233.572 372.51L191.621 387.117C184.126 389.756 184.126 393.98 191.621 396.619L233.313 411.402C240.807 414.041 248.991 422.489 251.575 430.056L266.133 473.259C268.717 480.914 272.852 480.914 275.436 473.259L289.65 430.32C292.148 422.664 300.331 414.305 307.825 411.666L350.379 396.795C357.874 394.156 357.874 389.932 350.379 387.381L308.515 372.95C301.02 370.398 292.837 362.039 290.253 354.384C289.994 354.296 275.35 310.741 275.35 310.741L275.35 310.741Z" id="Shape" fill="#FF9671" stroke="none" />
        <path d="M411.712 167.564C410.101 162.812 407.523 162.812 405.912 167.564L396.995 194.325C395.438 199.076 390.282 204.264 385.662 205.903L359.505 214.969C354.832 216.607 354.832 219.229 359.505 220.867L385.501 230.043C390.174 231.681 395.277 236.924 396.888 241.621L405.965 268.436C407.577 273.188 410.155 273.188 411.766 268.436L420.629 241.785C422.186 237.033 427.289 231.845 431.962 230.206L458.495 220.976C463.168 219.338 463.168 216.717 458.495 215.133L432.391 206.176C427.718 204.592 422.616 199.404 421.005 194.652C420.843 194.598 411.712 167.564 411.712 167.564L411.712 167.564Z" id="Shape" fill="#845EC2" stroke="none" />
      </g>
    </g>
  </g>
</svg>