<?xml version="1.0" encoding="utf-8"?>
<svg width="512.00073px" height="512px" viewBox="0 0 512.00073 512" version="1.1" xmlns:xlink="http://www.w3.org/1999/xlink" xmlns="http://www.w3.org/2000/svg">
  <g id="Magic">
    <path d="M0 0L512.001 0L512.001 512L0 512L0 0Z" id="Transparent-Background" fill="none" fill-rule="evenodd" stroke="none" />
    <path d="M402.001 0C462.76 0 512.001 49.2404 512.001 110L512.001 402C512.001 462.76 462.76 512 402.001 512L110 512C49.2404 512 0 462.76 0 402L0 110C0 49.2404 49.2404 0 110 0L402.001 0Z" id="Transparent-Background" fill="#E1E1E1" stroke="none" />
    <g id="Magic" transform="translate(66 64.51172)">
      <path d="M211.231 59.8234L374.213 0.415841C375.07 0.103228 375.954 -0.0331245 376.866 0.00677319C377.777 0.0466761 378.647 0.2598 379.473 0.646129C380.301 1.0323 381.023 1.56234 381.639 2.23622C382.256 2.9101 382.72 3.67655 383.033 4.53553L386.564 14.251C387.214 16.0396 387.137 17.7965 386.334 19.5216C385.531 21.2467 384.236 22.4347 382.45 23.0857L183.253 95.6944C182.395 96.0071 181.51 96.1435 180.598 96.1036C179.687 96.0637 178.817 95.8506 177.99 95.4643C177.163 95.078 176.441 94.5479 175.824 93.874C175.208 93.2002 174.743 92.4338 174.431 91.5749L170.9 81.8594C170.25 80.0709 170.327 78.3141 171.13 76.589C171.933 74.864 173.228 73.676 175.014 73.025L211.231 59.8234L211.231 59.8234Z" id="Vector" fill="#9C9C9C" fill-rule="evenodd" stroke="none" />
      <path d="M50.9803 14.9422C49.5058 10.6267 47.1466 10.6267 45.6721 14.9422L37.5133 39.248C36.088 43.5636 31.3697 48.2759 27.1428 49.764L3.207 57.9983C-1.069 59.4864 -1.069 61.8674 3.207 63.3555L26.9953 71.6889C31.2713 73.177 35.9406 77.939 37.415 82.2049L45.7213 106.56C47.1958 110.876 49.5549 110.876 51.0294 106.56L59.1391 82.3537C60.5644 78.0382 65.2336 73.3258 69.5096 71.8377L93.7895 63.4547C98.0655 61.9666 98.0655 59.5856 93.7895 58.1471L69.9028 50.0121C65.6268 48.5735 60.9576 43.8612 59.4831 39.5457C59.3357 39.496 50.9803 14.9422 50.9803 14.9422L50.9803 14.9422Z" id="Shape" fill="#FDCB4F" stroke="none" />
      <path d="M60.4435 304.643C59.2582 301.123 57.3616 301.123 56.1762 304.643L49.6172 324.465C48.4713 327.984 44.6781 331.827 41.28 333.041L22.0376 339.756C18.6 340.97 18.6 342.912 22.0376 344.125L41.1615 350.922C44.5991 352.135 48.3528 356.019 49.5381 359.498L56.2157 379.36C57.4011 382.88 59.2977 382.88 60.483 379.36L67.0026 359.619C68.1484 356.1 71.9021 352.257 75.3397 351.043L94.8587 344.206C98.2963 342.993 98.2963 341.051 94.8587 339.878L75.6558 333.243C72.2182 332.07 68.4645 328.227 67.2792 324.708C67.1606 324.667 60.4435 304.643 60.4435 304.643L60.4435 304.643Z" id="Shape" fill="#FDCB4F" stroke="none" />
      <path d="M319.321 202.233C318.57 200.012 317.367 200.012 316.615 202.233L312.456 214.74C311.729 216.96 309.324 219.385 307.169 220.151L294.966 224.388C292.786 225.153 292.786 226.379 294.966 227.144L307.094 231.432C309.274 232.198 311.654 234.648 312.406 236.844L316.64 249.376C317.392 251.597 318.595 251.597 319.346 249.376L323.481 236.92C324.207 234.699 326.588 232.275 328.768 231.509L341.146 227.195C343.326 226.43 343.326 225.204 341.146 224.464L328.968 220.278C326.788 219.538 324.408 217.113 323.656 214.893C323.581 214.867 319.321 202.233 319.321 202.233L319.321 202.233Z" id="Shape" fill="#FDCB4F" stroke="none" />
      <g id="Logo" transform="matrix(0.9659258 -0.25881904 0.25881904 0.9659258 34.210854 139.31013)">
        <path d="M102.791 9.34531e-06C46.0422 0.0207746 0.0208933 46.0813 2.33732e-06 102.878C-0.020912 159.676 45.9665 205.703 102.716 205.682C102.811 205.681 102.906 205.681 103.002 205.681L103.002 205.95L197.726 205.915Q197.923 205.915 198.119 205.905Q198.315 205.896 198.51 205.876Q198.705 205.857 198.9 205.828Q199.094 205.799 199.286 205.761Q199.479 205.722 199.669 205.675Q199.859 205.627 200.047 205.57Q200.235 205.513 200.42 205.447Q200.605 205.381 200.786 205.305Q200.967 205.23 201.145 205.146Q201.322 205.062 201.495 204.97Q201.669 204.877 201.837 204.776Q202.005 204.675 202.168 204.566Q202.332 204.457 202.489 204.34Q202.647 204.223 202.799 204.099Q202.95 203.974 203.096 203.842Q203.241 203.711 203.38 203.572Q203.519 203.433 203.651 203.288Q203.783 203.142 203.907 202.99Q204.032 202.839 204.149 202.681Q204.266 202.523 204.375 202.36Q204.484 202.197 204.585 202.029Q204.686 201.86 204.778 201.687Q204.871 201.514 204.955 201.337Q205.039 201.159 205.114 200.978Q205.189 200.796 205.255 200.612Q205.321 200.427 205.378 200.239Q205.435 200.051 205.483 199.861Q205.531 199.67 205.569 199.478Q205.607 199.285 205.636 199.091Q205.665 198.897 205.685 198.702Q205.704 198.506 205.714 198.31Q205.723 198.114 205.723 197.918L205.758 103.002L205.506 103.002C205.506 102.936 205.507 102.869 205.507 102.803C205.528 46.0057 159.54 -0.0207793 102.791 9.34531e-06Z" id="Oval-2-Union" fill="#FFFFFF" fill-rule="evenodd" stroke="none" />
        <path d="M33.6103 103.639C33.6127 97.5342 38.557 92.5836 44.6541 92.5812C50.7511 92.5789 55.6919 97.5256 55.6894 103.631C55.6873 109.735 50.743 114.686 44.646 114.688C38.5491 114.69 33.608 109.744 33.6103 103.639Z" id="e1" fill="#FDCB4F" fill-rule="evenodd" stroke="none" />
        <path d="M124.889 161.404L124.889 99.8338L165.555 99.8338L165.555 161.404L124.889 161.404Z" transform="rotate(15 145.22 130.62)" id="Rectangle" fill="#FDCB4F" fill-rule="evenodd" stroke="none" />
        <path d="M58.1493 103.632C58.1517 97.0299 53.4236 91.5361 47.1719 90.3603C52.6935 64.944 75.2933 45.9003 102.326 45.8902C133.488 45.8792 158.74 71.1637 158.729 102.365C158.717 133.567 133.447 158.87 102.285 158.881C76.0891 158.891 54.0694 141.025 47.7232 116.795C53.6957 115.4 58.1469 110.036 58.1493 103.632ZM102.315 74.1416C86.7341 74.1472 74.0986 86.7986 74.0927 102.4C74.0872 118 86.7134 130.643 102.294 130.637C117.875 130.631 130.51 117.98 130.516 102.379C130.522 86.778 117.896 74.1358 102.315 74.1416Z" id="e1" fill="#FDCB4F" fill-rule="evenodd" stroke="none" />
      </g>
    </g>
  </g>
</svg>