<?xml version="1.0" encoding="utf-8"?>
<svg width="6728px" height="1457px" viewBox="0 0 6728 1457" version="1.1" xmlns:xlink="http://www.w3.org/1999/xlink" xmlns="http://www.w3.org/2000/svg">
  <defs>
    <path d="M0 286.148C0 255.886 24.5322 231.354 54.7942 231.354C85.0561 231.354 109.588 255.886 109.588 286.148C109.588 316.409 85.0561 340.942 54.7942 340.942C24.5322 340.942 0 316.409 0 286.148Z" id="path_1" />
    <path d="M487.06 280.062L621.001 280.062L621.001 560.12L487.06 560.12L487.06 280.062Z" id="path_2" />
    <path d="M121.762 286.146C121.762 253.421 98.2899 226.178 67.2628 220.335C94.6271 94.3565 206.764 0 340.939 0C495.611 0 620.996 125.387 620.996 280.059C620.996 434.731 495.611 560.116 340.939 560.116C210.911 560.116 101.58 471.503 70.0412 351.372C99.6805 344.47 121.762 317.887 121.762 286.146ZM340.94 140.031C263.604 140.031 200.91 202.724 200.91 280.06C200.91 357.397 263.604 420.089 340.94 420.089C418.276 420.089 480.968 357.397 480.968 280.06C480.968 202.724 418.276 140.031 340.94 140.031Z" id="path_3" />
    <clipPath id="clip_1">
      <use xlink:href="#path_1" />
    </clipPath>
    <clipPath id="clip_2">
      <use xlink:href="#path_2" />
    </clipPath>
    <clipPath id="clip_3">
      <use xlink:href="#path_3" />
    </clipPath>
  </defs>
  <g id="Brand">
    <path d="M6459 0C6607.58 0 6728 120.415 6728 269L6728 1188C6728 1336.58 6607.58 1457 6459 1457L269 1457C120.415 1457 0 1336.58 0 1188L0 269C0 120.415 120.415 0 269 0L6459 0Z" id="Rectangle" fill="#0065A3" stroke="none" />
    <path d="M1763.71 591.039C1801 591.039 1831.47 598.011 1855.12 611.954C1878.78 625.897 1896.33 645.637 1907.76 671.174C1919.2 696.711 1924.92 727.026 1924.92 762.119C1924.92 821.026 1912.23 864.266 1886.85 891.839C1861.47 919.412 1822.62 933.199 1770.29 933.199L1749.61 933.199C1734.26 933.199 1720 931.632 1706.84 928.499C1693.68 925.366 1682.09 919.647 1672.06 911.344C1662.03 903.041 1654.2 891.369 1648.56 876.329C1642.92 861.289 1640.1 841.862 1640.1 818.049C1640.1 795.802 1643.15 776.532 1649.26 760.239C1655.37 743.946 1662.66 730.942 1671.12 721.229C1679.58 711.516 1687.26 705.562 1694.15 703.369L1691.8 694.439L1683.81 694.439C1669.4 694.439 1658.04 689.817 1649.73 680.574C1641.43 671.331 1637.12 658.876 1636.81 643.209C1636.5 627.542 1640.65 614.931 1649.26 605.374C1657.88 595.817 1669.4 591.039 1683.81 591.039L1763.71 591.039ZM1729.87 811.94C1729.87 818.52 1731.36 823.063 1734.33 825.57C1737.31 828.076 1741.78 829.33 1747.73 829.33L1773.11 829.33C1789.09 829.33 1801.47 825.883 1810.24 818.99C1819.01 812.096 1825.2 803.245 1828.8 792.435C1832.41 781.625 1834.21 770.11 1834.21 757.89C1834.21 745.67 1832.41 733.92 1828.8 722.64C1825.2 711.36 1819.01 702.116 1810.24 694.91C1801.47 687.703 1789.09 684.1 1773.11 684.1L1747.73 684.1C1741.78 684.1 1737.31 685.431 1734.33 688.095C1731.36 690.758 1729.87 695.536 1729.87 702.43L1729.87 811.94ZM1942.78 811C1942.78 786.246 1947.71 764.47 1957.58 745.67C1967.45 726.87 1981.55 712.143 1999.88 701.49C2018.21 690.836 2040.07 685.51 2065.45 685.51C2085.19 685.51 2102.97 689.113 2118.79 696.32C2134.62 703.526 2147.07 713.161 2156.16 725.225C2165.25 737.288 2169.79 750.526 2169.79 764.94C2169.79 779.98 2165.4 790.633 2156.63 796.9C2147.86 803.166 2134.85 806.3 2117.62 806.3L2018.92 806.3C2018.92 814.446 2022.13 821.183 2028.55 826.51C2034.98 831.836 2045.87 834.5 2061.22 834.5C2069.05 834.5 2076.34 833.716 2083.07 832.15C2089.81 830.583 2096.7 829.095 2103.75 827.685C2110.8 826.275 2118.72 825.57 2127.49 825.57C2140.02 825.57 2150.36 830.035 2158.51 838.965C2166.66 847.895 2170.73 860.193 2170.73 875.86C2170.73 894.346 2161.25 908.76 2142.29 919.1C2123.34 929.44 2098.51 934.61 2067.8 934.61C2046.18 934.61 2025.89 930.38 2006.93 921.92C1987.98 913.46 1972.55 900.065 1960.64 881.735C1948.73 863.405 1942.78 839.826 1942.78 811L1942.78 811ZM2095.06 790.789C2099.76 790.789 2101.33 788.596 2099.76 784.209C2098.51 779.823 2094.75 775.279 2088.48 770.579C2082.21 765.879 2073.13 763.529 2061.22 763.529C2047.43 763.529 2037.17 766.506 2030.44 772.459C2023.7 778.413 2020.33 784.523 2020.33 790.789L2095.06 790.789ZM2309.38 933.2C2289.01 933.2 2271.62 927.247 2257.21 915.34C2242.8 903.433 2230.89 883.693 2221.49 856.12L2184.36 748.96C2179.35 734.86 2179.43 721.857 2184.6 709.95C2189.77 698.043 2199.4 690.523 2213.5 687.39C2226.03 684.57 2237.08 685.823 2246.64 691.15C2256.19 696.477 2263.01 705.407 2267.08 717.94L2303.74 825.57C2308.13 838.103 2313.53 847.347 2319.96 853.3C2326.38 859.253 2334.29 860.663 2343.69 857.53C2352.46 854.083 2357.24 848.365 2358.03 840.375C2358.81 832.385 2357.01 823.063 2352.62 812.41C2348.86 802.697 2343.85 794.393 2337.58 787.5C2331.31 780.607 2325.67 773.4 2320.66 765.88C2315.65 758.36 2313.14 748.96 2313.14 737.68C2313.14 721.387 2318.39 708.618 2328.89 699.375C2339.38 690.132 2353.25 685.823 2370.48 686.45C2385.21 686.763 2397.27 691.933 2406.67 701.96C2416.07 711.987 2420.77 724.677 2420.77 740.03C2420.77 748.49 2419.36 757.577 2416.54 767.29C2413.72 777.003 2410.59 787.187 2407.14 797.84L2388.34 857.06C2383.33 872.727 2377.77 886.278 2371.66 897.715C2365.55 909.152 2357.71 917.925 2348.16 924.035C2338.6 930.145 2325.67 933.2 2309.38 933.2L2309.38 933.2ZM2484.22 695.379C2468.55 695.379 2455.78 690.835 2445.91 681.749C2436.04 672.662 2431.11 660.129 2431.11 644.148C2431.11 628.482 2435.57 615.87 2444.5 606.313C2453.43 596.757 2466.67 591.979 2484.22 591.979L2686.79 591.979C2704.34 591.979 2717.57 596.757 2726.5 606.313C2735.43 615.87 2739.9 628.482 2739.9 644.148C2739.9 660.129 2734.96 672.662 2725.09 681.749C2715.22 690.835 2702.46 695.379 2686.79 695.379C2676.14 695.379 2667.6 694.203 2661.17 691.854C2654.75 689.504 2649.5 686.683 2645.43 683.393C2641.36 680.104 2637.44 677.284 2633.68 674.933C2629.92 672.583 2625.22 671.409 2619.58 671.409L2615.35 679.868C2616.6 682.689 2618.8 686.684 2621.93 691.854C2625.06 697.023 2628.04 704.387 2630.86 713.943C2633.68 723.5 2635.09 736.425 2635.09 752.719L2635.09 888.549C2635.09 901.395 2630.31 912.048 2620.75 920.508C2611.2 928.969 2599.53 933.198 2585.74 933.198C2571.64 933.198 2559.81 928.969 2550.25 920.508C2540.7 912.048 2535.92 901.395 2535.92 888.549L2535.92 752.719C2535.92 736.425 2537.33 723.5 2540.15 713.943C2542.97 704.387 2546.02 697.023 2549.31 691.854C2552.6 686.684 2554.88 682.689 2556.13 679.868L2551.43 671.409C2545.79 671.409 2541.09 672.583 2537.33 674.933C2533.57 677.284 2529.65 680.104 2525.58 683.393C2521.51 686.683 2516.34 689.504 2510.07 691.854C2503.8 694.203 2495.19 695.379 2484.22 695.379L2484.22 695.379ZM2797.24 934.14C2760.58 934.14 2731.36 923.251 2709.58 901.475C2687.81 879.698 2676.92 848.913 2676.92 809.12C2676.92 784.68 2681.93 763.216 2691.96 744.73C2701.99 726.243 2716.01 711.751 2734.02 701.255C2752.04 690.758 2773.11 685.51 2797.24 685.51C2824.19 685.51 2846.59 690.758 2864.45 701.255C2882.31 711.751 2895.7 726.243 2904.63 744.73C2913.56 763.216 2918.03 784.68 2918.03 809.12C2918.03 848.913 2908.08 879.698 2888.19 901.475C2868.29 923.251 2837.97 934.14 2797.24 934.14L2797.24 934.14ZM2732.85 801.13C2732.85 810.843 2737.71 817.658 2747.42 821.575C2757.13 825.492 2773.74 827.45 2797.24 827.45C2820.74 827.45 2837.35 825.492 2847.06 821.575C2856.77 817.658 2861.63 810.843 2861.63 801.13C2861.63 791.73 2856.77 785.15 2847.06 781.39C2837.35 777.63 2820.74 775.75 2797.24 775.75C2773.74 775.75 2757.13 777.63 2747.42 781.39C2737.71 785.15 2732.85 791.73 2732.85 801.13L2732.85 801.13ZM3059.5 934.14C3022.84 934.14 2993.62 923.251 2971.84 901.475C2950.07 879.698 2939.18 848.913 2939.18 809.12C2939.18 784.68 2944.19 763.216 2954.22 744.73C2964.25 726.243 2978.27 711.751 2996.28 701.255C3014.3 690.758 3035.37 685.51 3059.5 685.51C3086.45 685.51 3108.85 690.758 3126.71 701.255C3144.57 711.751 3157.96 726.243 3166.89 744.73C3175.82 763.216 3180.29 784.68 3180.29 809.12C3180.29 848.913 3170.34 879.698 3150.44 901.475C3130.55 923.251 3100.23 934.14 3059.5 934.14L3059.5 934.14ZM2995.11 801.13C2995.11 810.843 2999.97 817.658 3009.68 821.575C3019.39 825.492 3036 827.45 3059.5 827.45C3083 827.45 3099.61 825.492 3109.32 821.575C3119.03 817.658 3123.89 810.843 3123.89 801.13C3123.89 791.73 3119.03 785.15 3109.32 781.39C3099.61 777.63 3083 775.75 3059.5 775.75C3036 775.75 3019.39 777.63 3009.68 781.39C2999.97 785.15 2995.11 791.73 2995.11 801.13L2995.11 801.13ZM3247.5 933.198C3232.15 933.198 3220.63 929.125 3212.95 920.978C3205.28 912.832 3201.44 902.648 3201.44 890.428L3201.44 617.828C3201.44 604.355 3205.28 593.153 3212.95 584.223C3220.63 575.293 3232.15 570.828 3247.5 570.828C3261.29 570.828 3271.94 575.293 3279.46 584.223C3286.98 593.153 3290.74 604.042 3290.74 616.888L3290.74 890.428C3290.74 902.648 3286.98 912.832 3279.46 920.978C3271.94 929.125 3261.29 933.198 3247.5 933.198L3247.5 933.198ZM3432.68 939.31C3411.06 939.31 3391.08 937.195 3372.75 932.965C3354.42 928.735 3339.78 921.998 3328.81 912.755C3317.84 903.512 3312.36 891.213 3312.36 875.86C3312.36 862.387 3316.43 851.263 3324.58 842.49C3332.73 833.717 3343.54 829.33 3357.01 829.33C3365.47 829.33 3374.01 830.662 3382.62 833.325C3391.24 835.988 3400.41 838.573 3410.12 841.08C3419.83 843.587 3430.33 844.84 3441.61 844.84C3451.64 844.84 3458.37 844.292 3461.82 843.195C3465.27 842.098 3466.99 839.983 3466.99 836.85C3466.99 833.09 3464.87 830.583 3460.64 829.33C3456.41 828.077 3449.29 826.51 3439.26 824.63L3405.42 818.05C3391.32 815.23 3377.61 811.548 3364.29 807.005C3350.98 802.462 3340.01 795.647 3331.39 786.56C3322.78 777.473 3318.47 765.097 3318.47 749.43C3318.47 728.123 3327.95 711.517 3346.9 699.61C3365.86 687.703 3393.36 681.75 3429.39 681.75C3450.07 681.75 3468.63 683.787 3485.08 687.86C3501.53 691.933 3514.62 697.965 3524.33 705.955C3534.04 713.945 3538.9 723.893 3538.9 735.8C3539.21 748.647 3535.77 758.987 3528.56 766.82C3521.35 774.653 3512.27 778.57 3501.3 778.57C3493.47 778.57 3485.55 777.552 3477.56 775.515C3469.57 773.478 3460.96 771.285 3451.71 768.935C3442.47 766.585 3431.9 765.253 3419.99 764.94C3411.53 764.313 3404.64 764.783 3399.31 766.35C3393.98 767.917 3391.32 770.423 3391.32 773.87C3391.32 777.63 3394.45 780.215 3400.72 781.625C3406.99 783.035 3416.39 784.837 3428.92 787.03L3462.29 793.14C3482.66 796.587 3498.87 800.895 3510.93 806.065C3523 811.235 3531.69 818.363 3537.02 827.45C3542.35 836.537 3545.01 849.07 3545.01 865.05C3545.01 881.657 3540.23 895.522 3530.67 906.645C3521.12 917.768 3507.88 925.993 3490.96 931.32C3474.04 936.647 3454.61 939.31 3432.68 939.31L3432.68 939.31ZM3729.72 933.199C3716.56 933.199 3705.83 929.047 3697.52 920.744C3689.22 912.441 3685.07 902.022 3685.07 889.489L3685.07 784.679C3676.92 786.559 3669.56 785.462 3662.98 781.389C3656.4 777.316 3651.15 771.206 3647.23 763.059C3643.32 754.912 3641.36 745.982 3641.36 736.269C3641.36 726.556 3643.4 717.547 3647.47 709.244C3651.54 700.941 3656.95 694.596 3663.68 690.209C3670.42 685.822 3677.86 684.882 3686.01 687.389C3687.58 664.202 3691.34 643.601 3697.29 625.584C3703.24 607.567 3712.41 593.389 3724.78 583.049C3737.16 572.709 3753.38 567.539 3773.43 567.539C3790.66 567.539 3804.45 571.064 3814.79 578.114C3825.13 585.164 3832.41 593.859 3836.64 604.199C3840.87 614.539 3842.21 625.036 3840.64 635.689C3839.07 646.029 3834.84 655.037 3827.95 662.714C3821.06 670.391 3810.87 674.229 3797.4 674.229C3788 674.229 3780.17 672.349 3773.9 668.589C3767.63 664.829 3762.38 660.207 3758.15 654.724C3753.92 649.241 3750.24 643.992 3747.11 638.979C3739.28 626.446 3731.29 622.216 3723.14 626.289C3719.07 628.482 3716.87 632.007 3716.56 636.864C3716.25 641.721 3717.81 647.282 3721.26 653.549L3731.6 671.409C3736.93 680.182 3742.57 685.901 3748.52 688.564C3754.47 691.227 3761.99 691.932 3771.08 690.679L3793.64 687.389C3808.05 685.196 3819.8 689.112 3828.89 699.139C3837.98 709.166 3842.52 721.542 3842.52 736.269C3842.52 751.622 3837.9 763.921 3828.65 773.164C3819.41 782.407 3808.05 786.246 3794.58 784.679L3774.84 782.329L3774.84 889.489C3774.84 902.022 3770.77 912.441 3762.62 920.744C3754.47 929.047 3743.51 933.199 3729.72 933.199L3729.72 933.199ZM3960.96 934.14C3924.3 934.14 3895.08 923.251 3873.31 901.475C3851.53 879.698 3840.64 848.913 3840.64 809.12C3840.64 784.68 3845.65 763.216 3855.68 744.73C3865.71 726.243 3879.73 711.751 3897.75 701.255C3915.76 690.758 3936.83 685.51 3960.96 685.51C3987.91 685.51 4010.31 690.758 4028.17 701.255C4046.03 711.751 4059.43 726.243 4068.36 744.73C4077.29 763.216 4081.75 784.68 4081.75 809.12C4081.75 848.913 4071.8 879.698 4051.91 901.475C4032.01 923.251 4001.69 934.14 3960.96 934.14L3960.96 934.14ZM3896.57 801.13C3896.57 810.843 3901.43 817.658 3911.14 821.575C3920.85 825.492 3937.46 827.45 3960.96 827.45C3984.46 827.45 4001.07 825.492 4010.78 821.575C4020.49 817.658 4025.35 810.843 4025.35 801.13C4025.35 791.73 4020.49 785.15 4010.78 781.39C4001.07 777.63 3984.46 775.75 3960.96 775.75C3937.46 775.75 3920.85 777.63 3911.14 781.39C3901.43 785.15 3896.57 791.73 3896.57 801.13L3896.57 801.13ZM4151.31 933.199C4136.58 933.199 4125.15 928.969 4117 920.509C4108.85 912.049 4104.78 901.396 4104.78 888.549L4104.78 734.389C4104.78 720.916 4108.85 709.714 4117 700.784C4125.15 691.854 4136.58 687.389 4151.31 687.389C4166.04 687.389 4177.32 691.854 4185.15 700.784C4192.98 709.714 4196.9 720.603 4196.9 733.449L4196.9 743.319L4205.83 743.319C4207.08 726.713 4213.35 713.083 4224.63 702.429C4235.91 691.776 4249.23 686.449 4264.58 686.449C4279.93 686.449 4292.07 691.149 4301 700.549C4309.93 709.949 4314.4 722.483 4314.4 738.149C4314.4 752.876 4310.17 765.096 4301.71 774.809C4293.25 784.523 4282.44 789.379 4269.28 789.379C4258.31 789.379 4249.15 786.794 4241.78 781.624C4234.42 776.454 4229.02 770.423 4225.57 763.529C4215.54 762.276 4208.26 763.294 4203.71 766.584C4199.17 769.874 4196.9 776.376 4196.9 786.089L4196.9 888.549C4196.9 901.396 4192.98 912.049 4185.15 920.509C4177.32 928.969 4166.04 933.199 4151.31 933.199L4151.31 933.199ZM4456.34 933.199C4435.35 930.066 4421.72 920.431 4415.45 904.294C4409.18 888.158 4410.44 867.713 4419.21 842.959L4481.25 666.709C4486.89 650.416 4493.39 636.473 4500.75 624.879C4508.12 613.286 4517.36 604.356 4528.48 598.089C4539.61 591.823 4553.47 588.689 4570.08 588.689C4595.15 588.689 4614.02 595.583 4626.71 609.369C4639.4 623.156 4649.98 642.269 4658.44 666.709L4720.01 842.959C4728.78 867.713 4730.43 888.158 4724.94 904.294C4719.46 920.431 4706.07 930.066 4684.76 933.199C4667.53 935.393 4652.56 933.356 4639.88 927.089C4627.18 920.823 4619.59 910.639 4617.08 896.539C4615.2 887.139 4614.96 879.306 4616.38 873.039C4617.78 866.773 4619.12 861.759 4620.37 857.999C4621.31 854.866 4621.39 851.811 4620.6 848.834C4619.82 845.858 4617.39 844.369 4613.32 844.369L4525.9 844.369C4521.83 844.369 4519.4 845.858 4518.61 848.834C4517.83 851.811 4518.07 854.866 4519.32 857.999C4520.57 861.759 4521.83 866.773 4523.08 873.039C4524.33 879.306 4524.18 887.139 4522.61 896.539C4520.1 910.639 4512.74 920.823 4500.52 927.089C4488.3 933.356 4473.57 935.393 4456.34 933.199L4456.34 933.199ZM4604.39 778.57L4579.95 701.96C4579.32 698.827 4578.3 696.398 4576.89 694.675C4575.48 692.952 4573.21 692.09 4570.08 692.09C4566.95 692.09 4564.67 692.952 4563.26 694.675C4561.85 696.398 4560.68 698.827 4559.74 701.96L4535.77 778.57L4604.39 778.57ZM4839.39 933.2C4819.02 933.2 4801.63 927.247 4787.22 915.34C4772.81 903.433 4760.9 883.693 4751.5 856.12L4714.37 748.96C4709.36 734.86 4709.44 721.857 4714.6 709.95C4719.78 698.043 4729.41 690.523 4743.51 687.39C4756.04 684.57 4767.09 685.823 4776.65 691.15C4786.2 696.477 4793.02 705.407 4797.09 717.94L4833.75 825.57C4838.14 838.103 4843.54 847.347 4849.96 853.3C4856.39 859.253 4864.3 860.663 4873.7 857.53C4882.47 854.083 4887.25 848.365 4888.04 840.375C4888.82 832.385 4887.02 823.063 4882.63 812.41C4878.87 802.697 4873.86 794.393 4867.59 787.5C4861.32 780.607 4855.68 773.4 4850.67 765.88C4845.66 758.36 4843.15 748.96 4843.15 737.68C4843.15 721.387 4848.4 708.618 4858.9 699.375C4869.39 690.132 4883.26 685.823 4900.49 686.45C4915.22 686.763 4927.28 691.933 4936.68 701.96C4946.08 711.987 4950.78 724.677 4950.78 740.03C4950.78 748.49 4949.37 757.577 4946.55 767.29C4943.73 777.003 4940.6 787.187 4937.15 797.84L4918.35 857.06C4913.34 872.727 4907.78 886.278 4901.67 897.715C4895.55 909.152 4887.72 917.925 4878.17 924.035C4868.61 930.145 4855.68 933.2 4839.39 933.2L4839.39 933.2ZM5025.51 933.199C5002.32 933.199 4984.23 926.932 4971.22 914.399C4958.22 901.865 4951.72 884.319 4951.72 861.759C4951.72 839.199 4959.24 822.827 4974.28 812.644C4989.32 802.46 5008.59 797.369 5032.09 797.369C5045.88 797.369 5058.41 798.309 5069.69 800.189C5080.97 802.069 5091.15 804.732 5100.24 808.179L5101.65 808.179L5101.65 801.129C5101.65 793.922 5098.99 788.204 5093.66 783.974C5088.33 779.744 5081.6 777.785 5073.45 778.099C5065.62 778.099 5058.96 778.569 5053.47 779.509C5047.99 780.449 5041.18 782.015 5033.03 784.209C5017.99 787.969 5004.99 787.655 4994.02 783.269C4983.05 778.882 4975.53 770.265 4971.46 757.419C4967.7 743.945 4968.56 732.665 4974.04 723.579C4979.53 714.492 4987.91 707.442 4999.19 702.429C5008.9 697.729 5019.79 693.812 5031.85 690.679C5043.92 687.545 5057 685.979 5071.1 685.979C5112.15 685.979 5142.3 695.927 5161.57 715.824C5180.84 735.72 5190.48 769.012 5190.48 815.699L5190.48 888.549C5190.48 901.395 5186.56 912.049 5178.73 920.509C5170.9 928.969 5160.09 933.199 5146.3 933.199C5131.26 933.199 5120.06 928.969 5112.69 920.509C5105.33 912.049 5101.65 901.709 5101.65 889.489L5101.65 878.679L5092.25 878.679C5092.25 886.825 5090.76 895.129 5087.78 903.589C5084.81 912.049 5078.7 919.099 5069.45 924.739C5060.21 930.379 5045.56 933.199 5025.51 933.199L5025.51 933.199ZM5030.21 830.269C5030.21 835.595 5032.17 839.355 5036.08 841.549C5040 843.742 5048.54 844.839 5061.7 844.839C5073.61 844.839 5081.91 843.742 5086.61 841.549C5091.31 839.355 5093.66 835.595 5093.66 830.269C5093.66 825.255 5091.31 821.73 5086.61 819.694C5081.91 817.657 5073.61 816.639 5061.7 816.639C5048.54 816.639 5040 817.657 5036.08 819.694C5032.17 821.73 5030.21 825.255 5030.21 830.269L5030.21 830.269ZM5259.1 933.198C5243.75 933.198 5232.23 929.125 5224.55 920.978C5216.88 912.832 5213.04 902.648 5213.04 890.428L5213.04 617.828C5213.04 604.355 5216.88 593.153 5224.55 584.223C5232.23 575.293 5243.75 570.828 5259.1 570.828C5272.89 570.828 5283.54 575.293 5291.06 584.223C5298.58 593.153 5302.34 604.042 5302.34 616.888L5302.34 890.428C5302.34 902.648 5298.58 912.832 5291.06 920.978C5283.54 929.125 5272.89 933.198 5259.1 933.198L5259.1 933.198ZM5444.28 934.14C5407.62 934.14 5378.4 923.251 5356.62 901.475C5334.85 879.698 5323.96 848.913 5323.96 809.12C5323.96 784.68 5328.97 763.216 5339 744.73C5349.03 726.243 5363.05 711.751 5381.06 701.255C5399.08 690.758 5420.15 685.51 5444.28 685.51C5471.23 685.51 5493.63 690.758 5511.49 701.255C5529.35 711.751 5542.74 726.243 5551.67 744.73C5560.6 763.216 5565.07 784.68 5565.07 809.12C5565.07 848.913 5555.12 879.698 5535.22 901.475C5515.33 923.251 5485.01 934.14 5444.28 934.14L5444.28 934.14ZM5379.89 801.13C5379.89 810.843 5384.75 817.658 5394.46 821.575C5404.17 825.492 5420.78 827.45 5444.28 827.45C5467.78 827.45 5484.39 825.492 5494.1 821.575C5503.81 817.658 5508.67 810.843 5508.67 801.13C5508.67 791.73 5503.81 785.15 5494.1 781.39C5484.39 777.63 5467.78 775.75 5444.28 775.75C5420.78 775.75 5404.17 777.63 5394.46 781.39C5384.75 785.15 5379.89 791.73 5379.89 801.13L5379.89 801.13ZM5633.69 933.199C5619.9 933.199 5608.86 929.047 5600.55 920.744C5592.25 912.44 5588.1 902.179 5588.1 889.959L5588.1 734.389C5588.1 721.229 5592.02 710.105 5599.85 701.019C5607.68 691.932 5618.96 687.389 5633.69 687.389C5648.1 687.389 5659.07 691.932 5666.59 701.019C5674.11 710.105 5677.87 721.542 5677.87 735.329L5677.87 758.829L5686.33 758.829C5686.33 740.969 5689.54 726.869 5695.96 716.529C5702.39 706.189 5710.61 698.747 5720.64 694.204C5730.67 689.66 5740.69 687.389 5750.72 687.389C5774.85 687.389 5792.55 696.084 5803.83 713.474C5815.11 730.864 5820.75 755.539 5820.75 787.499L5820.75 889.959C5820.75 902.179 5816.68 912.44 5808.53 920.744C5800.38 929.047 5789.42 933.199 5775.63 933.199C5761.53 933.199 5750.33 929.047 5742.02 920.744C5733.72 912.44 5729.57 902.179 5729.57 889.959L5729.57 806.769C5729.57 795.489 5727.45 786.715 5723.22 780.449C5718.99 774.182 5712.81 771.049 5704.66 771.049C5695.26 771.049 5688.44 774.495 5684.21 781.389C5679.98 788.282 5677.87 797.055 5677.87 807.709L5677.87 889.959C5677.87 902.179 5673.95 912.44 5666.12 920.744C5658.29 929.047 5647.48 933.199 5633.69 933.199L5633.69 933.199ZM5843.31 632.87C5843.31 619.397 5847.46 608.508 5855.76 600.205C5864.07 591.902 5875.58 587.75 5890.31 587.75C5905.98 587.75 5917.65 591.823 5925.32 599.97C5933 608.117 5936.84 618.927 5936.84 632.4C5936.84 645.56 5933 656.135 5925.32 664.125C5917.65 672.115 5905.98 676.11 5890.31 676.11C5874.96 676.11 5863.28 672.115 5855.29 664.125C5847.3 656.135 5843.31 645.717 5843.31 632.87L5843.31 632.87ZM5890.31 933.199C5875.58 933.199 5864.62 929.125 5857.41 920.979C5850.2 912.832 5846.6 902.649 5846.6 890.429L5846.6 729.689C5846.6 716.215 5850.2 705.562 5857.41 697.729C5864.62 689.895 5875.58 685.979 5890.31 685.979C5905.04 685.979 5916.08 689.895 5923.44 697.729C5930.81 705.562 5934.49 715.902 5934.49 728.749L5934.49 890.429C5934.49 902.649 5930.65 912.832 5922.97 920.979C5915.3 929.125 5904.41 933.199 5890.31 933.199L5890.31 933.199ZM6029.9 933.199C6006.71 933.199 5988.62 926.932 5975.61 914.399C5962.61 901.865 5956.11 884.319 5956.11 861.759C5956.11 839.199 5963.63 822.827 5978.67 812.644C5993.71 802.46 6012.98 797.369 6036.48 797.369C6050.27 797.369 6062.8 798.309 6074.08 800.189C6085.36 802.069 6095.54 804.732 6104.63 808.179L6106.04 808.179L6106.04 801.129C6106.04 793.922 6103.38 788.204 6098.05 783.974C6092.72 779.744 6085.99 777.785 6077.84 778.099C6070.01 778.099 6063.35 778.569 6057.86 779.509C6052.38 780.449 6045.57 782.015 6037.42 784.209C6022.38 787.969 6009.38 787.655 5998.41 783.269C5987.44 778.882 5979.92 770.265 5975.85 757.419C5972.09 743.945 5972.95 732.665 5978.43 723.579C5983.92 714.492 5992.3 707.442 6003.58 702.429C6013.29 697.729 6024.18 693.812 6036.24 690.679C6048.31 687.545 6061.39 685.979 6075.49 685.979C6116.54 685.979 6146.69 695.927 6165.96 715.824C6185.23 735.72 6194.87 769.012 6194.87 815.699L6194.87 888.549C6194.87 901.395 6190.95 912.049 6183.12 920.509C6175.29 928.969 6164.48 933.199 6150.69 933.199C6135.65 933.199 6124.45 928.969 6117.08 920.509C6109.72 912.049 6106.04 901.709 6106.04 889.489L6106.04 878.679L6096.64 878.679C6096.64 886.825 6095.15 895.129 6092.17 903.589C6089.2 912.049 6083.09 919.099 6073.84 924.739C6064.6 930.379 6049.95 933.199 6029.9 933.199L6029.9 933.199ZM6034.6 830.269C6034.6 835.595 6036.56 839.355 6040.47 841.549C6044.39 843.742 6052.93 844.839 6066.09 844.839C6078 844.839 6086.3 843.742 6091 841.549C6095.7 839.355 6098.05 835.595 6098.05 830.269C6098.05 825.255 6095.7 821.73 6091 819.694C6086.3 817.657 6078 816.639 6066.09 816.639C6052.93 816.639 6044.39 817.657 6040.47 819.694C6036.56 821.73 6034.6 825.255 6034.6 830.269L6034.6 830.269Z" id="Path" fill="#FFFFFF" stroke="none" />
    <g id="devtools-logo" transform="translate(493 314)">
      <path d="M414 0C185.354 0 0 185.354 0 413.999C0 642.646 185.354 827.999 414 827.999L820 827.999Q820.196 827.999 820.393 827.989Q820.589 827.98 820.784 827.96Q820.98 827.941 821.174 827.912Q821.368 827.883 821.561 827.845Q821.753 827.807 821.944 827.759Q822.134 827.711 822.322 827.654Q822.51 827.597 822.695 827.531Q822.88 827.465 823.062 827.39Q823.243 827.315 823.42 827.231Q823.598 827.147 823.771 827.054Q823.944 826.962 824.113 826.861Q824.281 826.76 824.445 826.651Q824.608 826.542 824.766 826.424Q824.923 826.308 825.075 826.183Q825.227 826.058 825.372 825.926Q825.518 825.795 825.657 825.656Q825.796 825.517 825.928 825.371Q826.06 825.226 826.184 825.074Q826.309 824.922 826.426 824.764Q826.543 824.607 826.652 824.443Q826.761 824.28 826.862 824.112Q826.963 823.943 827.055 823.77Q827.148 823.597 827.232 823.419Q827.316 823.242 827.391 823.06Q827.466 822.879 827.532 822.694Q827.598 822.509 827.655 822.321Q827.712 822.133 827.76 821.943Q827.808 821.752 827.846 821.56Q827.885 821.367 827.913 821.173Q827.942 820.978 827.962 820.783Q827.981 820.588 827.99 820.391Q828 820.195 828 819.999L828 414C828 185.354 642.647 0 414 0Z" id="Oval-2-Union" fill="#FFFFFF" fill-rule="evenodd" stroke="none" />
      <g id="Group-2" transform="translate(72.718216 133.25542)">
        <g id="e1">
          <use stroke="none" fill="#0065A3" xlink:href="#path_1" fill-rule="evenodd" />
          <g clip-path="url(#clip_1)">
            <use xlink:href="#path_1" fill="none" stroke="#0065A3" stroke-width="24" />
          </g>
        </g>
        <g id="Rectangle">
          <use stroke="none" fill="#0065A3" fill-opacity="0.101960786" xlink:href="#path_2" fill-rule="evenodd" />
          <g clip-path="url(#clip_2)">
            <use xlink:href="#path_2" fill="none" stroke="#0065A3" stroke-width="24" />
          </g>
        </g>
        <g id="e1">
          <use stroke="none" fill="#0065A3" fill-opacity="0.101960786" xlink:href="#path_3" fill-rule="evenodd" />
          <g clip-path="url(#clip_3)">
            <use xlink:href="#path_3" fill="none" stroke="#0065A3" stroke-width="24" />
          </g>
        </g>
      </g>
    </g>
  </g>
</svg>